<svg width="23" height="22" viewBox="0 0 23 22" fill="none" xmlns="http://www.w3.org/2000/svg">
<path d="M11.5 2.2C6.41898 2.2 2.3 6.13989 2.3 11C2.3 15.8601 6.41898 19.8 11.5 19.8C16.581 19.8 20.7 15.8601 20.7 11C20.7 6.13989 16.581 2.2 11.5 2.2ZM0 11C0 4.92487 5.14873 0 11.5 0C17.8513 0 23 4.92487 23 11C23 17.0751 17.8513 22 11.5 22C5.14873 22 0 17.0751 0 11ZM6.66183 6.37218C7.11093 5.94261 7.83907 5.94261 8.28817 6.37218L11.5 9.44437L14.7118 6.37218C15.1609 5.94261 15.8891 5.94261 16.3382 6.37218C16.7873 6.80176 16.7873 7.49824 16.3382 7.92782L13.1263 11L16.3382 14.0722C16.7873 14.5018 16.7873 15.1982 16.3382 15.6278C15.8891 16.0574 15.1609 16.0574 14.7118 15.6278L11.5 12.5556L8.28817 15.6278C7.83907 16.0574 7.11093 16.0574 6.66183 15.6278C6.21272 15.1982 6.21272 14.5018 6.66183 14.0722L9.87365 11L6.66183 7.92782C6.21272 7.49824 6.21272 6.80176 6.66183 6.37218Z" fill="#585858"/>
</svg>
