<svg width="22" height="22" viewBox="0 0 22 22" fill="none" xmlns="http://www.w3.org/2000/svg">
<path d="M11.0003 2.33341C6.21386 2.33341 2.33366 6.21361 2.33366 11.0001C2.33366 15.7865 6.21386 19.6667 11.0003 19.6667C15.7868 19.6667 19.667 15.7865 19.667 11.0001C19.667 6.21361 15.7868 2.33341 11.0003 2.33341ZM0.166992 11.0001C0.166992 5.017 5.01724 0.166748 11.0003 0.166748C16.9834 0.166748 21.8337 5.017 21.8337 11.0001C21.8337 16.9832 16.9834 21.8334 11.0003 21.8334C5.01724 21.8334 0.166992 16.9832 0.166992 11.0001ZM16.0534 7.48205C16.5006 7.87955 16.5409 8.56429 16.1434 9.01147L10.3656 15.5115C10.16 15.7428 9.86532 15.8751 9.55588 15.8751C9.24644 15.8751 8.95177 15.7428 8.74619 15.5115L5.8573 12.2615C5.45981 11.8143 5.50008 11.1295 5.94727 10.7321C6.39445 10.3346 7.07919 10.3748 7.47669 10.822L9.55588 13.1611L14.524 7.57202C14.9215 7.12484 15.6062 7.08456 16.0534 7.48205Z" fill="#585858"/>
</svg>
