<svg width="15" height="17" viewBox="0 0 15 17" fill="none" xmlns="http://www.w3.org/2000/svg">
<path d="M14.6632 14.1997L11.0755 10.2528C11.6166 9.27631 11.928 8.12745 11.928 6.90025C11.928 3.33147 9.11691 0.239991 5.87287 0.239991C2.62884 0.238946 0 3.13199 0 6.70077C0 10.2685 2.81112 13.361 6.0542 13.361C7.13365 13.361 8.14284 13.0383 9.01153 12.4795L12.6182 16.4494C12.9714 16.8369 13.5439 16.8369 13.8961 16.4494L14.7914 15.4645C15.1436 15.077 15.0154 14.5872 14.6632 14.1997ZM1.80762 6.70077C1.80762 4.22967 3.62759 2.22752 5.87287 2.22752C8.11911 2.22752 10.1204 4.42811 10.1204 6.90025C10.1204 9.3703 8.29949 11.3735 6.0542 11.3735C3.80797 11.3725 1.80762 9.17082 1.80762 6.70077Z" fill="#B1B1AF"/>
</svg>
